<svg id="logo" xmlns="http://www.w3.org/2000/svg" viewBox="0 0 175 50"><defs><style>.cls-1{fill:#1166a8;}.cls-2{fill:#231f20;}</style></defs><title>Artboard 1</title><g id="icon"><path id="pie" class="cls-1" d="M28.72,10.18a19.35,19.35,0,1,0,7.74,5.89L21.27,28Z"/><path id="cut" class="cls-1" d="M36.46,16.08l6.41-5a27.55,27.55,0,0,0-11-8.38l-3.14,7.52A19.37,19.37,0,0,1,36.46,16.08Z"/></g><g id="word"><path class="cls-2" d="M44.79,35.89a5.84,5.84,0,0,0,2.77-.64q.63-.48.63-2.51V17.17a3.41,3.41,0,0,0-.63-2.49A5,5,0,0,0,44.79,14v-.65H55.15V14a5,5,0,0,0-2.77.66,3.41,3.41,0,0,0-.63,2.49V32.74q0,2,.63,2.51a5.83,5.83,0,0,0,2.77.64v.65H44.79Z"/><path class="cls-2" d="M56.37,35.89a4.2,4.2,0,0,0,2.79-1q.62-.76.62-3.53V16l-.48-.56A3.86,3.86,0,0,0,58,14.28,5.07,5.07,0,0,0,56.37,14v-.65h6L75.85,30.13V18.49q0-2.87-.85-3.74A4.32,4.32,0,0,0,72.5,14v-.65h8.22V14a4.07,4.07,0,0,0-2.67,1q-.67.77-.67,3.52V36.95h-.6L61.31,17.75V31.38q0,2.87.84,3.74a4.26,4.26,0,0,0,2.44.77v.65H56.37Z"/><path class="cls-2" d="M96.83,13.53a19.17,19.17,0,0,0,2.24.56,1.76,1.76,0,0,0,.94-.27,1.43,1.43,0,0,0,.62-.85h.73l.32,7.86h-.8a11.34,11.34,0,0,0-1.83-3.78,7,7,0,0,0-5.79-2.7,7.36,7.36,0,0,0-6,2.91q-2.33,2.91-2.33,8a10.93,10.93,0,0,0,2.45,7.48,7.91,7.91,0,0,0,6.21,2.79,10,10,0,0,0,5-1.3A15,15,0,0,0,101.48,32l.65.65a11.73,11.73,0,0,1-2.89,2.58,12.43,12.43,0,0,1-15.33-1.73,11.84,11.84,0,0,1-3.06-8.32,12.11,12.11,0,0,1,3.23-8.58A11.56,11.56,0,0,1,92.93,13,14.32,14.32,0,0,1,96.83,13.53Z"/><path class="cls-2" d="M106.93,16a11.75,11.75,0,0,1,15.91,0,11.87,11.87,0,0,1,3.5,9A11.77,11.77,0,0,1,122.72,34a11.13,11.13,0,0,1-7.84,3,10.93,10.93,0,0,1-8.17-3.33,12,12,0,0,1-3.3-8.73A11.89,11.89,0,0,1,106.93,16Zm2.62,17.15a6.67,6.67,0,0,0,5.34,2.64,6.74,6.74,0,0,0,5.3-2.57q2.2-2.57,2.2-8.23t-2.22-8.27a6.79,6.79,0,0,0-5.27-2.55,6.67,6.67,0,0,0-5.33,2.64q-2.18,2.64-2.18,8.18T109.54,33.13Z"/><path class="cls-2" d="M126.86,35.89a4,4,0,0,0,2.51-.78,4.93,4.93,0,0,0,.5-2.77V17.17a3.65,3.65,0,0,0-.56-2.42,4.07,4.07,0,0,0-2.45-.73v-.65h9.69a14.28,14.28,0,0,1,5,.77,5.33,5.33,0,0,1,3.83,5.34,4.9,4.9,0,0,1-1.7,4,9.35,9.35,0,0,1-4.62,1.84l7.21,8.88a4.84,4.84,0,0,0,1.33,1.19,4.37,4.37,0,0,0,1.71.47v.65h-5.64L135,25.75l-1.54.09v6.9A3.45,3.45,0,0,0,134,35.2a4.89,4.89,0,0,0,2.57.69v.65h-9.72Zm12-12.13a4.25,4.25,0,0,0,2.79-4.3,4.12,4.12,0,0,0-2.5-4.15,8.77,8.77,0,0,0-3.54-.6,4.45,4.45,0,0,0-1.82.21q-.33.21-.33,1v8.62A17.67,17.67,0,0,0,138.83,23.75Z"/><path class="cls-2" d="M150.52,35.89a3.89,3.89,0,0,0,2.5-.79,4.94,4.94,0,0,0,.5-2.76V17.17a3.65,3.65,0,0,0-.56-2.41,4,4,0,0,0-2.44-.73v-.65h9.23q4.44,0,6.8,1.73a5.37,5.37,0,0,1,2.36,4.55,5.62,5.62,0,0,1-2.61,5.18,12.3,12.3,0,0,1-6.55,1.61l-1.44,0-1.31,0v6.36q0,2,.61,2.48a5.31,5.31,0,0,0,2.71.66v.65h-9.79Zm11.81-20.56a9.44,9.44,0,0,0-3.76-.65,2.45,2.45,0,0,0-1.32.21,1.28,1.28,0,0,0-.25.95V25l1.23.1.56,0a8.69,8.69,0,0,0,3.79-.68q2.51-1.25,2.51-4.67A4.39,4.39,0,0,0,162.33,15.33Z"/></g></svg>